<svg xmlns="http://www.w3.org/2000/svg" viewBox="0 0 34.167 31.833">
	<symbol id="card" viewBox="0 0 34.167 31.833">
	  <path id="card1" d="M11.958 6.148c1.609 0 2.913 1.52 2.913 3.397 0 1.878-1.304 3.402-2.913 3.402-1.608 0-2.913-1.521-2.913-3.398 0-1.878 1.305-3.401 2.913-3.401zM16.609 14.018c-.719-.479-2.783-.794-2.783-.794h-.001s-1.342 1.428-1.909 1.429c-.566 0-1.908-1.429-1.908-1.429h-.001s-2.064.315-2.784.794c-.719.475-1.034 6.178-1.034 6.178h11.453s-.314-5.703-1.033-6.178z"/>
	  <path id="card2" d="M29.466 30.124H4.701a2.806 2.806 0 0 1-2.803-2.803V4.512a2.806 2.806 0 0 1 2.803-2.803h24.766a2.806 2.806 0 0 1 2.803 2.803v22.809a2.808 2.808 0 0 1-2.804 2.803zM4.701 3.577a.936.936 0 0 0-.935.935v22.809c0 .516.419.935.935.935h24.766a.935.935 0 0 0 .934-.935V4.512a.935.935 0 0 0-.934-.935H4.701z"/>
	  <path id="card3" d="M26.585 25.292H7.483a1.401 1.401 0 0 1 0-2.802h19.102a1.402 1.402 0 0 1 0 2.802zM26.585 19.974H20.98a1.401 1.401 0 0 1 0-2.801h5.605c.773 0 1.402.627 1.402 1.4s-.628 1.401-1.402 1.401zM26.585 14.656H20.98a1.4 1.4 0 0 1 0-2.802h5.605a1.402 1.402 0 0 1 0 2.802zM26.585 9.338H20.98a1.4 1.4 0 0 1 0-2.802h5.605a1.402 1.402 0 0 1 0 2.802z"/>
  	</symbol>
</svg>
