<svg xmlns="http://www.w3.org/2000/svg" viewBox="0 0 34.167 31.833">
	<symbol id="url" viewBox="0 0 34.167 31.833">
		<path id="url1" d="M13.657 1.915c3.207 0 5.807 3.029 5.807 6.773s-2.6 6.781-5.807 6.781S7.85 12.438 7.85 8.694c0-3.742 2.6-6.779 5.807-6.779zM15.387 20.614l3.621-3.621c.195-.193.4-.373.615-.535-1.211-.277-2.246-.438-2.246-.438s-2.676 2.85-3.805 2.85c-1.137 0-3.807-2.85-3.807-2.85s-4.115.629-5.549 1.584c-1.432.947-2.061 12.314-2.061 12.314h14.457a5.92 5.92 0 0 1-1.229-9.304h.004zM30.817 14.405a4.078 4.078 0 0 0-5.766 0l-2.184 2.184a5.096 5.096 0 0 1 2.6.283l1.025-1.025a2.038 2.038 0 0 1 2.883 2.881l-2.883 2.883a2.04 2.04 0 0 1-2.881 0 1.902 1.902 0 0 1-.322-.43l-1.465 1.465c.104.141.217.277.346.406a4.075 4.075 0 0 0 5.764 0l2.883-2.883a4.075 4.075 0 0 0 0-5.764z"/>
  		<path id="url2" d="M22.795 25.174L21.772 26.2a2.044 2.044 0 0 1-2.883 0 2.044 2.044 0 0 1 0-2.883l2.883-2.881a2.035 2.035 0 0 1 3.115.285l1.451-1.453a2.722 2.722 0 0 0-.244-.273 4.075 4.075 0 0 0-5.764 0l-2.881 2.881a4.078 4.078 0 0 0 5.764 5.766l2.184-2.186a5.128 5.128 0 0 1-2.602-.282z"/>
  	</symbol>
</svg>
